<svg width="1080" height="1080" viewBox="0 0 1080 1080" fill="none" xmlns="http://www.w3.org/2000/svg">
<rect width="1080" height="1080" fill="#F5F5F5"/>
<rect width="1080" height="1080" fill="white"/>
<path d="M289 951.472V152.472L317.736 132V926L289 951.472Z" fill="#B0C6CE" stroke="#B0C6CE" stroke-width="5"/>
<path d="M762 949V150L791 129V923L762 949Z" fill="#B0C6CE" stroke="#B0C6CE" stroke-width="5"/>
<path d="M757 572L291 570L320.062 542H757V572Z" fill="#F9A03F" stroke="#F9A03F" stroke-width="5"/>
<path d="M757 292L293 290L321.938 262H757V292Z" fill="#F9A03F" stroke="#F9A03F" stroke-width="5"/>
<path d="M757 852L293 850L321.938 822H757V852Z" fill="#F9A03F" stroke="#F9A03F" stroke-width="5"/>
<path d="M653 556H533V436L564 424H683V538L653 556Z" fill="#D52941"/>
<path d="M533 436V556H653M533 436L564 424H683M533 436H653M653 436V469.846V556M653 436L683 424M653 556L683 538V424" stroke="#990D35" stroke-width="2"/>
<path d="M613 424L583 436V455L594 450L604 455V436L634 424H613Z" fill="#990D35" stroke="#990D35"/>
<path d="M539 549V444L632.934 534.487C635.476 542.274 634.23 549 623 549H539Z" fill="#990D35" fill-opacity="0.3"/>
<path d="M653 836H533V716L564 704H683V818L653 836Z" fill="#D52941"/>
<path d="M533 716V836H653M533 716L564 704H683M533 716H653M653 716V749.846V836M653 716L683 704M653 836L683 818V704" stroke="#990D35" stroke-width="2"/>
<path d="M613 704L583 716V735L594 730L604 735V716L634 704H613Z" fill="#990D35" stroke="#990D35"/>
<path d="M539 829V724L632.934 814.487C635.476 822.274 634.23 829 623 829H539Z" fill="#990D35" fill-opacity="0.3"/>
<path d="M653 276H533V156L564 144H683V258L653 276Z" fill="#D52941"/>
<path d="M533 156V276H653M533 156L564 144H683M533 156H653M653 156V189.846V276M653 156L683 144M653 276L683 258V144" stroke="#990D35" stroke-width="2"/>
<path d="M613 144L583 156V175L594 170L604 175V156L634 144H613Z" fill="#990D35" stroke="#990D35"/>
<path d="M539 269V164L632.934 254.487C635.476 262.274 634.23 269 623 269H539Z" fill="#990D35" fill-opacity="0.3"/>
<path d="M532.5 543V556.5H425L441 543H486.75H532.5Z" fill="black" fill-opacity="0.1"/>
<path d="M532.5 822V835.5H425L441 822H486.75H532.5Z" fill="black" fill-opacity="0.1"/>
<path d="M532.5 262V275.5H425L441 262H486.75H532.5Z" fill="black" fill-opacity="0.1"/>
</svg>
