<svg width="1080" height="1080" viewBox="0 0 1080 1080" fill="none" xmlns="http://www.w3.org/2000/svg">
<rect width="1080" height="1080" fill="#F5F5F5"/>
<rect width="1080" height="1080" fill="white"/>
<rect x="100" y="99" width="881" height="881" rx="100" fill="#D9D9D9"/>
<path d="M794 241V293.435C794 310.004 780.569 323.435 764 323.435H418.671C402.103 323.435 388.671 336.867 388.671 353.435V367.94C388.671 384.509 402.103 397.94 418.671 397.94H764C780.569 397.94 794 411.372 794 427.94V838C794 854.569 780.569 868 764 868H317C300.431 868 287 854.569 287 838V777.437C287 760.869 300.431 747.437 317 747.437H654.195C670.764 747.437 684.195 734.006 684.195 717.437V534.957C684.195 518.388 670.764 504.957 654.195 504.957H317C300.431 504.957 287 491.525 287 474.957V241C287 224.431 300.431 211 317 211H764C780.569 211 794 224.431 794 241Z" fill="#F9A03F" stroke="#F9A03F"/>
<path d="M648 748V779H401L437.763 748H542.881H648Z" fill="black" fill-opacity="0.1"/>
<path d="M649.2 770.92H442V563.72L495.527 543H701V739.84L649.2 770.92Z" fill="#D52941"/>
<path d="M580.133 543L528.333 563.72V596.527L547.327 587.893L564.593 596.527V563.72L616.393 543H580.133Z" fill="#990D35"/>
<path d="M442 563.956H648.793M648.793 563.956L649.29 771M648.793 563.956L699 544" stroke="#990D35" stroke-width="2"/>
<path d="M467.26 554.001L490.26 545.001L695 546V744.5C695 744.5 677.5 774.5 674.5 764.5C674 754.5 674.5 554 674.5 554L467.26 554.001Z" fill="black" fill-opacity="0.1"/>
<rect x="684" y="521" width="56" height="256" fill="#F9A03F"/>
</svg>
